# xmcd
#
# Track frame offsets: 
#        150
#        21645
#        53680
#        68797
#
# Disc length: 1326 seconds
#
# Revision: 3
# Processed by: cddbd v1.5.2PL0 Copyright (c) Steve Scherf et al.
# Submitted via: ExactAudioCopy v0.99pb5
#
DISCID=32052c04
DTITLE=Blondie - No Exit [CD2]
DYEAR=1999
DGENRE=Rock
TTITLE0=Call Me
TTITLE1=Rapture
TTITLE2=Dreaming
TTITLE3=Heart Of Glass
EXTD=\n\nYEAR: 2000  ID3G:  17
EXTT0=
EXTT1=
EXTT2=
EXTT3=
PLAYORDER=
